
<svg xmlns="http://www.w3.org/2000/svg" viewBox="0 0 73.59 73.59"><defs>
<style>.cls-1{fill:#780fb9;}</style>
	</defs><title>header-pat</title><g id="Layer_2" data-name="Layer 2"><g id="Layer_1-2" data-name="Layer 1"><polygon class="cls-1" points="73.57 65.06 73.56 65.06 73.57 65.06 73.57 65.06"/><polygon class="cls-1" points="73.56 65.06 73.56 65.06 73.56 65.06 73.56 65.06"/><polygon class="cls-1" points="73.58 65.06 73.58 65.06 73.58 65.06 73.58 65.06"/><polygon class="cls-1" points="65.69 70.16 65.69 70.16 65.69 70.15 65.69 70.15 65.69 70.16"/><polygon class="cls-1" points="65.69 70.15 65.69 70.15 65.69 70.15 65.69 70.15"/><path class="cls-1" d="M65.7,70.1h0S65.72,70.1,65.7,70.1Z"/><polygon class="cls-1" points="70.15 65.69 70.15 65.69 70.15 65.69 70.15 65.69"/><path class="cls-1" d="M70.11,65.69h0S70.11,65.7,70.11,65.69Z"/><path class="cls-1" d="M69.74,43.13Z"/><polygon class="cls-1" points="73.59 65.06 73.58 65.06 73.59 65.06 73.59 65.06"/><path class="cls-1" d="M67.24,33h0Z"/><path class="cls-1" d="M69.74,30.46Z"/><path class="cls-1" d="M67.24,40.62h0Z"/><polygon class="cls-1" points="65.06 73.57 65.06 73.56 65.06 73.57 65.06 73.57"/><polygon class="cls-1" points="65.06 73.58 65.06 73.58 65.06 73.58 65.06 73.58"/><polygon class="cls-1" points="65.06 73.58 65.06 73.59 65.06 73.59 65.06 73.58"/><polygon class="cls-1" points="65.06 73.56 65.06 73.56 65.06 73.56 65.06 73.56"/><polygon class="cls-1" points="70.16 65.69 70.15 65.69 70.15 65.69 70.16 65.69 70.16 65.69"/><polygon class="cls-1" points="73.58 8.53 73.58 8.53 73.58 8.53 73.58 8.53"/><polygon class="cls-1" points="73.59 8.53 73.59 8.53 73.58 8.53 73.59 8.53"/><polygon class="cls-1" points="73.56 8.53 73.56 8.53 73.56 8.53 73.56 8.53"/><polygon class="cls-1" points="70.15 7.9 70.16 7.9 70.16 7.9 70.15 7.9 70.15 7.9"/><polygon class="cls-1" points="70.15 7.9 70.15 7.9 70.15 7.9 70.15 7.9"/><polygon class="cls-1" points="73.56 8.53 73.57 8.53 73.57 8.53 73.56 8.53"/><path class="cls-1" d="M70.1,7.89h0S70.1,7.87,70.1,7.89Z"/><path class="cls-1" d="M67.46,30.68a1,1,0,0,1-.41-.41A1,1,0,0,1,67.46,30.68Z"/><path class="cls-1" d="M67.05,43.32a1,1,0,0,1,.41-.41A1,1,0,0,1,67.05,43.32Z"/><polygon class="cls-1" points="65.69 3.43 65.69 3.43 65.69 3.43 65.69 3.43 65.69 3.43"/><polygon class="cls-1" points="65.69 3.44 65.69 3.44 65.69 3.44 65.69 3.44"/><path class="cls-1" d="M65.69,3.48h0S65.7,3.48,65.69,3.48Z"/><polygon class="cls-1" points="65.06 0.02 65.06 0.03 65.06 0.03 65.06 0.02"/><polygon class="cls-1" points="65.06 0 65.06 0 65.06 0 65.06 0"/><polygon class="cls-1" points="65.06 0.02 65.06 0.02 65.06 0.02 65.06 0.02"/><path class="cls-1" d="M44.68,33.33h0S44.67,33.33,44.68,33.33Z"/><path class="cls-1" d="M33,67.24Z"/><polygon class="cls-1" points="8.53 73.57 8.53 73.56 8.53 73.57 8.53 73.57"/><path class="cls-1" d="M40.63,67.24Z"/><path class="cls-1" d="M30.46,69.74h0Z"/><polygon class="cls-1" points="8.53 73.56 8.53 73.56 8.53 73.56 8.53 73.56"/><path class="cls-1" d="M43.13,69.74Z"/><path class="cls-1" d="M33.33,28.91h0S33.33,28.92,33.33,28.91Z"/><polygon class="cls-1" points="33.37 28.91 33.37 28.91 33.37 28.91 33.37 28.91"/><polygon class="cls-1" points="28.91 33.37 28.91 33.37 28.91 33.37 28.91 33.37"/><polygon class="cls-1" points="28.91 33.38 28.91 33.38 28.91 33.37 28.91 33.37 28.91 33.38"/><polygon class="cls-1" points="33.38 28.91 33.37 28.91 33.37 28.91 33.38 28.91 33.38 28.91"/><polygon class="cls-1" points="36.78 28.28 36.78 28.28 36.78 28.28 36.78 28.28"/><polygon class="cls-1" points="36.81 28.28 36.8 28.28 36.81 28.28 36.81 28.28"/><path class="cls-1" d="M30.68,67.46a1,1,0,0,1-.41-.41A1,1,0,0,1,30.68,67.46Z"/><path class="cls-1" d="M43.32,67.05a1,1,0,0,1-.41.41A1,1,0,0,1,43.32,67.05Z"/><polygon class="cls-1" points="36.8 28.28 36.8 28.28 36.8 28.28 36.8 28.28"/><polygon class="cls-1" points="36.79 28.28 36.78 28.28 36.79 28.28 36.79 28.28"/><polygon class="cls-1" points="8.53 73.58 8.53 73.58 8.53 73.58 8.53 73.58"/><polygon class="cls-1" points="8.53 73.59 8.53 73.59 8.53 73.58 8.53 73.59"/><path class="cls-1" d="M28.92,33.32h0S28.94,33.32,28.92,33.32Z"/><polygon class="cls-1" points="40.22 28.91 40.22 28.91 40.22 28.91 40.22 28.91"/><path class="cls-1" d="M40.27,28.92h0S40.27,28.94,40.27,28.92Z"/><polygon class="cls-1" points="40.22 28.91 40.21 28.91 40.21 28.91 40.22 28.91 40.22 28.91"/><polygon class="cls-1" points="45.31 36.79 45.31 36.78 45.3 36.79 45.31 36.79"/><polygon class="cls-1" points="45.31 36.78 45.31 36.78 45.31 36.78 45.31 36.78"/><polygon class="cls-1" points="44.68 33.38 44.68 33.38 44.68 33.37 44.68 33.37 44.68 33.38"/><polygon class="cls-1" points="44.68 33.37 44.68 33.37 44.68 33.37 44.68 33.37"/><path class="cls-1" d="M42.91,6.13a1.05,1.05,0,0,1,.41.4A.93.93,0,0,1,42.91,6.13Z"/><path class="cls-1" d="M30.27,6.53a1.05,1.05,0,0,1,.41-.4A.93.93,0,0,1,30.27,6.53Z"/><polygon class="cls-1" points="45.3 36.8 45.31 36.8 45.31 36.8 45.3 36.8"/><path class="cls-1" d="M43.13,3.85h0Z"/><path class="cls-1" d="M40.63,6.35Z"/><path class="cls-1" d="M33,6.35Z"/><path class="cls-1" d="M30.46,3.84h0Z"/><path class="cls-1" d="M44.67,40.27h0S44.65,40.27,44.67,40.27Z"/><path class="cls-1" d="M28.91,40.26h0S28.92,40.26,28.91,40.26Z"/><polygon class="cls-1" points="33.37 44.68 33.37 44.68 33.37 44.68 33.37 44.68"/><path class="cls-1" d="M33.32,44.67h0S33.32,44.65,33.32,44.67Z"/><polygon class="cls-1" points="36.78 45.31 36.79 45.31 36.79 45.3 36.78 45.31"/><polygon class="cls-1" points="36.78 45.31 36.78 45.31 36.78 45.31 36.78 45.31"/><polygon class="cls-1" points="33.37 44.68 33.38 44.68 33.38 44.68 33.37 44.68 33.37 44.68"/><polygon class="cls-1" points="28.28 36.8 28.28 36.8 28.28 36.8 28.28 36.8"/><polygon class="cls-1" points="28.91 40.22 28.91 40.22 28.91 40.22 28.91 40.22"/><polygon class="cls-1" points="28.28 36.79 28.28 36.78 28.28 36.79 28.28 36.79"/><polygon class="cls-1" points="28.91 40.21 28.91 40.21 28.91 40.22 28.91 40.22 28.91 40.21"/><polygon class="cls-1" points="28.28 36.8 28.28 36.81 28.28 36.81 28.28 36.8"/><polygon class="cls-1" points="45.31 36.81 45.31 36.81 45.31 36.8 45.31 36.81"/><polygon class="cls-1" points="44.68 40.21 44.68 40.21 44.68 40.22 44.68 40.22 44.68 40.21"/><polygon class="cls-1" points="40.22 44.68 40.22 44.68 40.22 44.68 40.22 44.68"/><path class="cls-1" d="M40.26,44.68h0S40.26,44.67,40.26,44.68Z"/><polygon class="cls-1" points="36.81 45.31 36.81 45.31 36.8 45.31 36.81 45.31"/><polygon class="cls-1" points="28.28 36.78 28.28 36.78 28.28 36.78 28.28 36.78"/><polygon class="cls-1" points="44.68 40.22 44.68 40.22 44.68 40.22 44.68 40.22"/><polygon class="cls-1" points="36.8 45.31 36.8 45.31 36.8 45.3 36.8 45.31"/><polygon class="cls-1" points="40.21 44.68 40.22 44.68 40.22 44.68 40.21 44.68 40.21 44.68"/><path class="cls-1" d="M36.26,36.26a1.83,1.83,0,0,0,0,1.07,1.83,1.83,0,0,0,1.07,0,1.83,1.83,0,0,0,0-1.07,1.83,1.83,0,0,0-1.07,0Z"/><path class="cls-1" d="M38.55,38.55a3,3,0,0,1-1.76.59A2.93,2.93,0,0,1,35,38.55a3,3,0,0,1-.6-1.76A2.94,2.94,0,0,1,35,35a2.94,2.94,0,0,1,1.75-.6,3,3,0,0,1,1.76.6,2.93,2.93,0,0,1,.59,1.75A3,3,0,0,1,38.55,38.55Z"/><path class="cls-1" d="M3.85,43.13Z"/><path class="cls-1" d="M6.13,42.91a.93.93,0,0,1,.4.41A1.05,1.05,0,0,1,6.13,42.91Z"/><path class="cls-1" d="M6.53,30.27a.93.93,0,0,1-.4.41A1.05,1.05,0,0,1,6.53,30.27Z"/><path class="cls-1" d="M3.85,30.46Z"/><path class="cls-1" d="M6.35,40.63h0Z"/><path class="cls-1" d="M6.35,33h0Z"/><path class="cls-1" d="M21.37,53.06,21.5,53a.91.91,0,1,1-.13.05Zm1,6.11A1.69,1.69,0,0,1,21,58a1.76,1.76,0,0,1,0-.23,1,1,0,0,1,.24,0A1.69,1.69,0,0,1,22.39,59.17Zm-1.81-7.08a.5.5,0,0,1,0,.13A.93.93,0,1,1,20,51,.94.94,0,0,1,20.58,52.09ZM5.2,55.62c-1.57-1.51-1.88-4.48-.07-5.95,1.54-1.26,4.23-.08,3.54,2.07a1.44,1.44,0,0,1-2.81,0,1.83,1.83,0,0,0-.09.9,2.87,2.87,0,0,0,.69,1.56,3,3,0,0,0,3.26.92c2.43-.81,3.08-4.22,2.15-6.31l-.12-.26.26.12c2.09.93,5.5.28,6.31-2.15a3,3,0,0,0-.92-3.26,2.87,2.87,0,0,0-1.56-.69,1.83,1.83,0,0,0-.9.09,1.44,1.44,0,0,1,0,2.81c-2.15.69-3.33-2-2.07-3.54,1.47-1.81,4.44-1.5,5.95.07a5.16,5.16,0,0,1,.07,6.6,5.44,5.44,0,0,1-5.49,1.62,5.43,5.43,0,0,1-1.62,5.49A5.16,5.16,0,0,1,5.2,55.62Zm10.61-3a.87.87,0,0,1-.23,0,1.7,1.7,0,0,1-1.16-1.4,1.7,1.7,0,0,1,1.4,1.16A.87.87,0,0,1,15.81,52.59ZM12.06,62a4.8,4.8,0,0,1-.83.38,4.8,4.8,0,0,1,.38-.83,5.71,5.71,0,0,1,2.9-2.45A5.71,5.71,0,0,1,12.06,62Zm3.38-4.67-.13,0a.94.94,0,0,1-1.13-.63.9.9,0,1,1,1.26.58Zm.79,1a.5.5,0,0,1,.05-.13.92.92,0,1,1,.58,1.26A.93.93,0,0,1,16.23,58.28Zm15.38-3.53c1.57,1.51,1.88,4.47.07,6-1.55,1.26-4.24.08-3.54-2.07a1.44,1.44,0,0,1,2.8,0,1.73,1.73,0,0,0,.1-.9,3,3,0,0,0-.69-1.56,3,3,0,0,0-3.27-.92c-2.42.81-3.07,4.22-2.14,6.31,0,.09.08.17.12.26s-.17-.09-.26-.12c-2.09-.93-5.5-.28-6.31,2.14a3,3,0,0,0,.92,3.27,3,3,0,0,0,1.56.69,1.73,1.73,0,0,0,.9-.1,1.44,1.44,0,0,1,0-2.8c2.15-.7,3.33,2,2.07,3.54-1.48,1.81-4.44,1.5-6-.07a5.16,5.16,0,0,1-.07-6.6,5.43,5.43,0,0,1,5.49-1.62A5.43,5.43,0,0,1,25,54.68,5.16,5.16,0,0,1,31.61,54.75Zm-6.87-6.36a5.28,5.28,0,0,1,.84-.38,4.8,4.8,0,0,1-.38.83,5.71,5.71,0,0,1-2.9,2.45A5.73,5.73,0,0,1,24.74,48.39Z"/><polygon class="cls-1" points="7.9 70.15 7.9 70.15 7.9 70.15 7.9 70.15"/><path class="cls-1" d="M7.9,70.11h0S7.89,70.11,7.9,70.11Z"/><polygon class="cls-1" points="7.9 70.16 7.9 70.16 7.9 70.15 7.9 70.15 7.9 70.16"/><polygon class="cls-1" points="3.44 65.69 3.44 65.69 3.44 65.69 3.44 65.69"/><path class="cls-1" d="M3.49,65.7h0S3.49,65.72,3.49,65.7Z"/><polygon class="cls-1" points="3.43 65.69 3.43 65.69 3.43 65.69 3.43 65.69 3.43 65.69"/><polygon class="cls-1" points="0.02 65.06 0.02 65.06 0.02 65.06 0.02 65.06"/><polygon class="cls-1" points="0 65.06 0 65.06 0 65.06 0 65.06"/><polygon class="cls-1" points="0.03 65.06 0.02 65.06 0.03 65.06 0.03 65.06"/><polygon class="cls-1" points="0.01 65.06 0 65.06 0.01 65.06 0.01 65.06"/><polygon class="cls-1" points="3.43 7.9 3.43 7.9 3.43 7.9 3.43 7.9 3.43 7.9"/><polygon class="cls-1" points="0.02 8.53 0.02 8.53 0.02 8.53 0.02 8.53"/><polygon class="cls-1" points="3.44 7.9 3.44 7.9 3.44 7.9 3.44 7.9"/><path class="cls-1" d="M3.48,7.9h0S3.48,7.89,3.48,7.9Z"/><polygon class="cls-1" points="0.03 8.53 0.03 8.53 0.02 8.53 0.03 8.53"/><polygon class="cls-1" points="7.9 3.43 7.9 3.43 7.9 3.43 7.9 3.43 7.9 3.43"/><polygon class="cls-1" points="0 8.53 0 8.53 0 8.53 0 8.53"/><polygon class="cls-1" points="0 8.53 0.01 8.53 0.01 8.53 0 8.53"/><polygon class="cls-1" points="8.53 0.03 8.53 0.03 8.53 0.02 8.53 0.03"/><polygon class="cls-1" points="7.9 3.44 7.9 3.44 7.9 3.44 7.9 3.44"/><polygon class="cls-1" points="8.53 0 8.53 0 8.53 0 8.53 0"/><path class="cls-1" d="M7.89,3.49h0S7.87,3.49,7.89,3.49Z"/><polygon class="cls-1" points="8.53 0.02 8.53 0.02 8.53 0.02 8.53 0.02"/><polygon class="cls-1" points="8.53 0.01 8.53 0 8.53 0.01 8.53 0.01"/><path class="cls-1" d="M53.64,51a.9.9,0,1,1,.56,1.71.92.92,0,0,1-1.14-.45.5.5,0,0,1-.05-.13A.93.93,0,0,1,53.64,51Zm-1.55,2,.13.05a.93.93,0,0,1-.73,1.7.93.93,0,0,1,.6-1.75Zm.51,5a1.7,1.7,0,0,1-1.4,1.16,1.69,1.69,0,0,1,1.16-1.4.87.87,0,0,1,.23,0A.87.87,0,0,1,52.6,58Zm-3.76-9.62a5.71,5.71,0,0,1,2.45,2.9,5.71,5.71,0,0,1-2.9-2.45A4.8,4.8,0,0,1,48,48,4.8,4.8,0,0,1,48.84,48.39Zm6.78,20c-1.51,1.57-4.48,1.88-5.95.07-1.26-1.55-.08-4.24,2.07-3.54a1.44,1.44,0,0,1,0,2.8,1.73,1.73,0,0,0,.9.1,3,3,0,0,0,1.56-.69,3,3,0,0,0,.92-3.27c-.81-2.42-4.22-3.07-6.31-2.14a2.06,2.06,0,0,0-.26.12l.12-.26c.93-2.09.28-5.5-2.15-6.31a3,3,0,0,0-3.26.92,2.87,2.87,0,0,0-.69,1.56,1.83,1.83,0,0,0,.09.9,1.44,1.44,0,0,1,2.81,0c.69,2.15-2,3.33-3.54,2.07-1.81-1.48-1.5-4.44.07-6a5.16,5.16,0,0,1,6.6-.07,5.43,5.43,0,0,1,1.62,5.49,5.43,5.43,0,0,1,5.49,1.62A5.16,5.16,0,0,1,55.62,68.39Zm1.11-9a.9.9,0,1,1,.58-1.26.5.5,0,0,1,0,.13A.94.94,0,0,1,56.73,59.41Zm1.55-2-.13,0a.92.92,0,1,1,1.26-.58A.94.94,0,0,1,58.28,57.36Zm-.51-5a1.69,1.69,0,0,1,1.4-1.16A1.7,1.7,0,0,1,58,52.6a.87.87,0,0,1-.23,0A.87.87,0,0,1,57.77,52.36ZM61.53,62a5.71,5.71,0,0,1-2.45-2.9A5.71,5.71,0,0,1,62,61.53a4.8,4.8,0,0,1,.38.83A4.8,4.8,0,0,1,61.53,62Zm5.6-7.8a3,3,0,0,0,.69-1.56,1.73,1.73,0,0,0-.1-.9,1.44,1.44,0,0,1-2.8,0c-.7-2.15,2-3.33,3.54-2.07,1.81,1.47,1.5,4.44-.07,5.95a5.16,5.16,0,0,1-6.6.07,5.44,5.44,0,0,1-1.62-5.49,5.43,5.43,0,0,1-5.49-1.62,5.16,5.16,0,0,1,.07-6.6c1.51-1.57,4.47-1.88,6-.07,1.26,1.54.08,4.23-2.07,3.54a1.44,1.44,0,0,1,0-2.81,1.83,1.83,0,0,0-.9-.09,2.87,2.87,0,0,0-1.56.69,3,3,0,0,0-.92,3.26c.81,2.43,4.22,3.08,6.31,2.15l.26-.12a2.06,2.06,0,0,0-.12.26c-.93,2.09-.28,5.5,2.14,6.31A3,3,0,0,0,67.13,54.18Z"/><path class="cls-1" d="M36.79,29.25a1,1,0,0,0,1-1,1,1,0,0,0-.85-1l-.15,0-.15,0a1,1,0,0,0-.84,1A1,1,0,0,0,36.79,29.25Zm0-1h0Zm0,0Z"/><path class="cls-1" d="M39.85,29.85a1,1,0,0,0,1.28-.47A1,1,0,0,0,40.68,28l0,0-.07,0a1,1,0,0,0-.71,1.86Zm.41-.94h0s0,0,0,0Zm0,0Zm0,0Z"/><path class="cls-1" d="M33.73,29.85A1,1,0,0,0,33,28L33,28l-.06,0a1,1,0,0,0-.44,1.34A1,1,0,0,0,33.73,29.85Zm-.36-.94h0Zm0,0Zm0,0h0s0,0,0,0h0Z"/><path class="cls-1" d="M40.62,7.31a1,1,0,0,0,1-1,1,1,0,0,0-.84-1,.4.4,0,0,0-.15,0,.37.37,0,0,0-.15,0,1,1,0,0,0-.85,1A1,1,0,0,0,40.62,7.31Zm0-1Z"/><path class="cls-1" d="M33.12,5.34a.4.4,0,0,0-.15,0l-.15,0a1,1,0,0,0-.84,1,1,1,0,0,0,1,1,1,1,0,0,0,1-1A1,1,0,0,0,33.12,5.34Zm-.16,1Z"/><path class="cls-1" d="M43.59,30h0a1,1,0,0,0-1.14.18,1,1,0,0,0-.18,1.14Z"/><path class="cls-1" d="M31.14,30.18A1,1,0,0,0,30,30l1.32,1.32A1,1,0,0,0,31.14,30.18Z"/><path class="cls-1" d="M43.32,6.53l-.41-.4A.93.93,0,0,0,43.32,6.53Z"/><path class="cls-1" d="M30.68,6.13l-.41.4A.93.93,0,0,0,30.68,6.13Z"/><path class="cls-1" d="M48.39,24.74a5.28,5.28,0,0,0-.38.84l3.28-3.28A5.73,5.73,0,0,0,48.39,24.74Z"/><path class="cls-1" d="M22.3,22.3l3.28,3.28a5.28,5.28,0,0,0-.38-.84A5.73,5.73,0,0,0,22.3,22.3Z"/><path class="cls-1" d="M51.49,18.83A.92.92,0,0,0,51,20a.94.94,0,0,0,1.13.63l.13,0a.93.93,0,0,0-.73-1.7Z"/><path class="cls-1" d="M22.63,20a.92.92,0,0,0-.54-1.12.92.92,0,0,0-.72,1.7l.13,0A.94.94,0,0,0,22.63,20Z"/><path class="cls-1" d="M52.36,15.82a.87.87,0,0,0,.23,0L51.2,14.42A1.7,1.7,0,0,0,52.36,15.82Z"/><path class="cls-1" d="M21.23,15.82a1.7,1.7,0,0,0,1.16-1.4L21,15.81A1,1,0,0,0,21.23,15.82Z"/><path class="cls-1" d="M36.79,36.18a1.8,1.8,0,0,1,.54.08L38.55,35a3,3,0,0,0-1.76-.6A2.94,2.94,0,0,0,35,35l1.22,1.22A1.78,1.78,0,0,1,36.79,36.18Z"/><path class="cls-1" d="M50.2,13.42l-1.67-1.67.12.26c.93,2.09.28,5.5-2.15,6.31a3,3,0,0,1-3.26-.92,2.87,2.87,0,0,1-.69-1.56,1.83,1.83,0,0,1,.09-.9,1.44,1.44,0,0,0,2.81,0c.69-2.15-2-3.33-3.54-2.07-1.81,1.47-1.5,4.44.07,5.95a5.16,5.16,0,0,0,6.6.07A5.44,5.44,0,0,0,50.2,13.42Z"/><path class="cls-1" d="M39.72,9.26l-.29.27a2.41,2.41,0,0,0,0-.38,2.84,2.84,0,0,0-2.64-2.94,2.85,2.85,0,0,0-2.64,2.94c0,.13,0,.25,0,.38l-.29-.27A6.44,6.44,0,0,0,29,7.77L27.55,9.26a5.16,5.16,0,0,1,2.36-.5,6,6,0,0,1,4.92,3.33,11.69,11.69,0,0,1,1.39,5.79,7.79,7.79,0,0,1-2.65,5.67c-1.75,1.66-3.8,2.92-5.51,4.51l.69.69c1.8-1.69,4-2.94,5.78-4.7a9.07,9.07,0,0,0,2.25-3.54v0l0,0a9.07,9.07,0,0,0,2.25,3.54c1.76,1.76,4,3,5.78,4.7l.69-.69c-1.71-1.59-3.76-2.85-5.51-4.51a7.8,7.8,0,0,1-2.66-5.67,11.8,11.8,0,0,1,1.4-5.79,6,6,0,0,1,4.92-3.33,5.21,5.21,0,0,1,2.36.5L44.55,7.77A6.44,6.44,0,0,0,39.72,9.26Zm-2,2.43s0,0,0,0c-.28.58-.59,1.14-.84,1.72a.16.16,0,0,1,0,.07l0-.07c-.26-.58-.56-1.14-.84-1.72,0,0,0,0,0,0C35.42,10.63,34.85,8,36.79,8S38.17,10.63,37.68,11.69Z"/><path class="cls-1" d="M36.79,32.2a5.37,5.37,0,0,1,3.36,1.24l1.07-1.07a6.67,6.67,0,0,0-4.43-2.07,6.67,6.67,0,0,0-4.42,2.07l1.07,1.07A5.37,5.37,0,0,1,36.79,32.2Z"/><path class="cls-1" d="M25,18.91a5.16,5.16,0,0,0,6.6-.07c1.57-1.51,1.88-4.48.07-5.95-1.55-1.26-4.24-.08-3.54,2.07a1.44,1.44,0,0,0,2.8,0,1.73,1.73,0,0,1,.1.9,3,3,0,0,1-.69,1.56,3,3,0,0,1-3.27.92C24.66,17.51,24,14.1,24.94,12a2.06,2.06,0,0,1,.12-.26l-1.67,1.67A5.44,5.44,0,0,0,25,18.91Z"/><path class="cls-1" d="M8.2,2.52a1,1,0,0,0-.77,1.83A1,1,0,0,0,8.77,3.9s0,0,0,0l0-.07A1,1,0,0,0,8.2,2.52Zm-.3.91Zm0,0Zm0,0h0s0,0,0,0Z"/><path class="cls-1" d="M30.5,2.84a1,1,0,0,0,0,2,1,1,0,0,0,1-.84.26.26,0,0,0,0-.15.25.25,0,0,0,0-.15A1,1,0,0,0,30.5,2.84Zm0,1Z"/><path class="cls-1" d="M5.49,5.49,6.81,6.81h0A1,1,0,0,0,5.49,5.49Z"/><path class="cls-1" d="M30.27,6.53l.41-.4A1.05,1.05,0,0,0,30.27,6.53Z"/><path class="cls-1" d="M12.06,11.61a4.8,4.8,0,0,0-.83-.38l3.28,3.28A5.71,5.71,0,0,0,12.06,11.61Z"/><path class="cls-1" d="M16.28,15.44a.93.93,0,0,0,1.7-.73.93.93,0,0,0-1.75.6A.5.5,0,0,0,16.28,15.44Z"/><path class="cls-1" d="M21,15.58a1.76,1.76,0,0,0,0,.23l1.4-1.39A1.69,1.69,0,0,0,21,15.58Z"/><path class="cls-1" d="M.63,0A1.8,1.8,0,0,1,.55.55L1.77,1.77A3,3,0,0,0,2.36,0Z"/><path class="cls-1" d="M23.39,13.42l1.67-1.67-.26.12c-2.09.93-5.5.28-6.31-2.15a3,3,0,0,1,.92-3.26A2.87,2.87,0,0,1,21,5.77a1.83,1.83,0,0,1,.9.09,1.44,1.44,0,0,0,0,2.81c2.15.69,3.33-2,2.07-3.54-1.48-1.81-4.44-1.5-6,.07a5.16,5.16,0,0,0-.07,6.6A5.43,5.43,0,0,0,23.39,13.42Z"/><path class="cls-1" d="M30.6,0H28.79c0,2-2.62,1.38-3.68.89h0C24.5.61,23.94.3,23.36.05l-.07,0h-7a9.07,9.07,0,0,0-3.54,2.25c-1.76,1.76-3,4-4.7,5.78l.69.69C10.34,7,11.59,5,13.26,3.24A7.8,7.8,0,0,1,18.92.58,11.81,11.81,0,0,1,24.72,2,5.94,5.94,0,0,1,28,6.9a5.08,5.08,0,0,1-.49,2.36L29,7.77a6.44,6.44,0,0,0-1.49-4.83l-.27-.29a2.41,2.41,0,0,0,.38,0A2.85,2.85,0,0,0,30.6,0Z"/><path class="cls-1" d="M4.61,0A5.43,5.43,0,0,1,3.37,3.37L4.44,4.44A6.7,6.7,0,0,0,6.5,0Z"/><path class="cls-1" d="M66.63,3.07a1,1,0,0,0-1.86.71l0,.07s0,0,0,0a1,1,0,0,0,1.34.45A1,1,0,0,0,66.63,3.07Zm-.94.36Zm0,0Zm0,.05h0S65.72,3.49,65.7,3.49Z"/><path class="cls-1" d="M43.12,4.83a1,1,0,0,0,0-2,1,1,0,0,0-1,.85.37.37,0,0,0,0,.15.4.4,0,0,0,0,.15A1,1,0,0,0,43.12,4.83Zm0-1h0Z"/><path class="cls-1" d="M67,5.67a1,1,0,0,0-.18,1.14L68.1,5.49A1,1,0,0,0,67,5.67Z"/><path class="cls-1" d="M42.91,6.13l.41.4A1.05,1.05,0,0,0,42.91,6.13Z"/><path class="cls-1" d="M62.36,11.23a4.8,4.8,0,0,0-.83.38,5.71,5.71,0,0,0-2.45,2.9Z"/><path class="cls-1" d="M55.61,14.71a.93.93,0,0,0,1.7.73.5.5,0,0,0,0-.13.94.94,0,0,0-.63-1.13A.92.92,0,0,0,55.61,14.71Z"/><path class="cls-1" d="M51.2,14.42l1.39,1.39a.87.87,0,0,0,0-.23A1.7,1.7,0,0,0,51.2,14.42Z"/><path class="cls-1" d="M73,0H71.22a3,3,0,0,0,.6,1.76L73,.55A1.8,1.8,0,0,1,73,0Z"/><path class="cls-1" d="M60.83,2.28A9.07,9.07,0,0,0,57.29,0h-7l-.07,0c-.58.25-1.14.56-1.72.84h0C47.41,1.39,44.8,2,44.8,0H43a2.84,2.84,0,0,0,2.94,2.63,2.41,2.41,0,0,0,.38,0L46,2.94a6.44,6.44,0,0,0-1.49,4.83L46,9.26a5.21,5.21,0,0,1-.5-2.36A6,6,0,0,1,48.87,2,11.8,11.8,0,0,1,54.66.58a7.8,7.8,0,0,1,5.67,2.66C62,5,63.25,7,64.84,8.75l.69-.69C63.84,6.26,62.59,4,60.83,2.28Z"/><path class="cls-1" d="M67.08,0a6.72,6.72,0,0,0,2.07,4.42l1.07-1.07A5.37,5.37,0,0,1,69,0Z"/><path class="cls-1" d="M55.69,11.8a5.16,5.16,0,0,0-.07-6.6c-1.51-1.57-4.48-1.88-5.95-.07-1.26,1.54-.08,4.23,2.07,3.54a1.44,1.44,0,0,0,0-2.81,1.83,1.83,0,0,1,.9-.09,2.87,2.87,0,0,1,1.56.69,3,3,0,0,1,.92,3.26c-.81,2.43-4.22,3.08-6.31,2.15l-.26-.12,1.67,1.67A5.44,5.44,0,0,0,55.69,11.8Z"/><path class="cls-1" d="M3.07,7A1,1,0,0,0,2.52,8.2a1,1,0,0,0,1.26.62l.07,0,0,0a1,1,0,0,0,.45-1.34A1,1,0,0,0,3.07,7Zm.36.94Zm0,0Zm.05,0h0s0,0,0,0Z"/><path class="cls-1" d="M3.69,31.47a.25.25,0,0,0,.15,0,.26.26,0,0,0,.15,0,1,1,0,0,0,.84-1,1,1,0,0,0-2,0A1,1,0,0,0,3.69,31.47Zm.16-1Z"/><path class="cls-1" d="M5.67,6.63a1,1,0,0,0,1.14.18L5.49,5.49A1,1,0,0,0,5.67,6.63Z"/><path class="cls-1" d="M6.13,30.68l.4-.41A1.05,1.05,0,0,0,6.13,30.68Z"/><path class="cls-1" d="M14.51,14.51l-3.28-3.28a4.8,4.8,0,0,0,.38.83A5.71,5.71,0,0,0,14.51,14.51Z"/><path class="cls-1" d="M14.18,16.86a.9.9,0,1,0,1.71.56.92.92,0,0,0-.45-1.14l-.13-.05A.93.93,0,0,0,14.18,16.86Z"/><path class="cls-1" d="M15.58,21a1.69,1.69,0,0,0-1.16,1.4L15.81,21Z"/><path class="cls-1" d="M0,.63V2.36a3,3,0,0,0,1.76-.59L.55.55A1.8,1.8,0,0,1,0,.63Z"/><path class="cls-1" d="M6.9,28A5.94,5.94,0,0,1,2,24.72a11.81,11.81,0,0,1-1.4-5.8,7.8,7.8,0,0,1,2.66-5.66C5,11.59,7,10.34,8.75,8.75l-.69-.69C6.26,9.75,4,11,2.28,12.76A9.07,9.07,0,0,0,0,16.3l0-.05H0v1.07H0V19s0,0,0,0v3s0,0,0,0v1.18l0,.07c.25.58.56,1.14.84,1.72,0,0,0,0,0,0C1.39,26.17,2,28.79,0,28.79H0v1.67H0v.13a2.85,2.85,0,0,0,2.63-2.94,2.41,2.41,0,0,0,0-.38l.29.27A6.44,6.44,0,0,0,7.77,29l1.49-1.49A5.08,5.08,0,0,1,6.9,28Z"/><path class="cls-1" d="M3.37,3.37A5.43,5.43,0,0,1,0,4.61H0V6.5H0A6.71,6.71,0,0,0,4.44,4.44Z"/><path class="cls-1" d="M5.13,23.92c1.54,1.26,4.23.08,3.54-2.07a1.44,1.44,0,0,0-2.81,0,1.83,1.83,0,0,1-.09-.9,2.87,2.87,0,0,1,.69-1.56,3,3,0,0,1,3.26-.92c2.43.81,3.08,4.22,2.15,6.31l-.12.26,1.67-1.67A5.43,5.43,0,0,0,11.8,17.9,5.16,5.16,0,0,0,5.2,18C3.63,19.48,3.32,22.44,5.13,23.92Z"/><path class="cls-1" d="M3.07,66.63a1,1,0,0,0,1.28-.47,1,1,0,0,0-.45-1.34l0,0-.07,0a1,1,0,0,0-.71,1.86Zm.41-.94h0s0,0,0,0Zm0,0Zm0,0Z"/><path class="cls-1" d="M3.84,44.09a1,1,0,0,0,1-1,1,1,0,0,0-.84-1l-.15,0a.37.37,0,0,0-.15,0,1,1,0,0,0-.85,1A1,1,0,0,0,3.84,44.09Zm0-1Z"/><path class="cls-1" d="M6.81,66.78h0A1,1,0,0,0,5.67,67a1,1,0,0,0-.18,1.14Z"/><path class="cls-1" d="M6.53,43.32l-.4-.41A1.05,1.05,0,0,0,6.53,43.32Z"/><path class="cls-1" d="M11.61,61.53a4.8,4.8,0,0,0-.38.83l3.28-3.28A5.71,5.71,0,0,0,11.61,61.53Z"/><path class="cls-1" d="M14.71,55.61a.92.92,0,0,0-.53,1.12.94.94,0,0,0,1.13.63l.13,0a.93.93,0,0,0-.73-1.7Z"/><path class="cls-1" d="M15.58,52.6a.87.87,0,0,0,.23,0L14.42,51.2A1.7,1.7,0,0,0,15.58,52.6Z"/><path class="cls-1" d="M0,71.22V73A1.8,1.8,0,0,1,.55,73l1.22-1.22A3,3,0,0,0,0,71.22Z"/><path class="cls-1" d="M13.42,50.2l-1.67-1.67.12.26c.93,2.09.28,5.5-2.15,6.31a3,3,0,0,1-3.26-.92,2.87,2.87,0,0,1-.69-1.56,1.83,1.83,0,0,1,.09-.9,1.44,1.44,0,0,0,2.81,0c.69-2.15-2-3.33-3.54-2.07-1.81,1.47-1.5,4.44.07,5.95a5.16,5.16,0,0,0,6.6.07A5.43,5.43,0,0,0,13.42,50.2Z"/><path class="cls-1" d="M.58,54.66A11.8,11.8,0,0,1,2,48.87,6,6,0,0,1,6.9,45.54a5.21,5.21,0,0,1,2.36.5L7.77,44.55A6.44,6.44,0,0,0,2.94,46l-.29.27a2.41,2.41,0,0,0,0-.38A2.84,2.84,0,0,0,0,43H0V44.8H0c2,0,1.38,2.61.89,3.67,0,0,0,0,0,0-.28.58-.59,1.14-.84,1.72a.16.16,0,0,1,0,.07H0v1.61H0v0H0v1.81H0v1.32H0V56.4H0v.92H0l0-.05a9.07,9.07,0,0,0,2.25,3.54c1.76,1.76,4,3,5.78,4.7l.69-.69C7,63.25,5,62,3.24,60.33A7.8,7.8,0,0,1,.58,54.66Z"/><path class="cls-1" d="M0,67.08V69s0,0,0,0H0a5.37,5.37,0,0,1,3.36,1.24l1.07-1.07A6.76,6.76,0,0,0,0,67.08Z"/><path class="cls-1" d="M29.25,36.79a1,1,0,0,0-1-1,1,1,0,0,0-1,.84.77.77,0,0,0,0,.15.61.61,0,0,0,0,.15,1,1,0,0,0,1,.85A1,1,0,0,0,29.25,36.79Zm-1,0Zm0,0Z"/><path class="cls-1" d="M28.61,34.29a1,1,0,0,0,1.24-.56,1,1,0,0,0-.47-1.27A1,1,0,0,0,28,32.9s0,0,0,.06L28,33A1,1,0,0,0,28.61,34.29Zm.3-.91Zm0,0Zm0,0h0s0,0,0,0Z"/><path class="cls-1" d="M29.85,39.85a1,1,0,0,0-1.86.71l0,.07s0,0,0,0a1,1,0,0,0,1.34.45A1,1,0,0,0,29.85,39.85Zm-.94.36Zm0,0Zm0,.05h0S28.94,40.27,28.92,40.27Z"/><path class="cls-1" d="M6.31,34a1,1,0,0,0,0-2,1,1,0,0,0-1,.85.39.39,0,0,0,0,.3A1,1,0,0,0,6.31,34Zm0-1Z"/><path class="cls-1" d="M6.34,41.61a1,1,0,0,0,0-2,1,1,0,0,0-1,.85.37.37,0,0,0,0,.15.4.4,0,0,0,0,.15A1,1,0,0,0,6.34,41.61Zm0-1h0Z"/><path class="cls-1" d="M31.32,31.32,30,30h0a1,1,0,0,0,.18,1.14A1,1,0,0,0,31.32,31.32Z"/><path class="cls-1" d="M30.18,42.45A1,1,0,0,0,30,43.59l1.32-1.32A1,1,0,0,0,30.18,42.45Z"/><path class="cls-1" d="M6.53,30.27l-.4.41A.93.93,0,0,0,6.53,30.27Z"/><path class="cls-1" d="M6.13,42.91l.4.41A.93.93,0,0,0,6.13,42.91Z"/><path class="cls-1" d="M24.74,25.2a5.28,5.28,0,0,0,.84.38L22.3,22.3A5.73,5.73,0,0,0,24.74,25.2Z"/><path class="cls-1" d="M25.58,48a5.28,5.28,0,0,0-.84.38,5.73,5.73,0,0,0-2.44,2.9Z"/><path class="cls-1" d="M20.53,21.37a.92.92,0,0,0-1.7.72.92.92,0,0,0,1.12.54.94.94,0,0,0,.63-1.13A.5.5,0,0,0,20.53,21.37Z"/><path class="cls-1" d="M18.83,51.49a.93.93,0,0,0,1.7.73.5.5,0,0,0,0-.13A.94.94,0,0,0,20,51,.92.92,0,0,0,18.83,51.49Z"/><path class="cls-1" d="M15.82,21.23a1,1,0,0,0,0-.24l-1.39,1.4A1.7,1.7,0,0,0,15.82,21.23Z"/><path class="cls-1" d="M14.42,51.2l1.39,1.39a.87.87,0,0,0,0-.23A1.7,1.7,0,0,0,14.42,51.2Z"/><path class="cls-1" d="M36.18,36.79a1.78,1.78,0,0,1,.08-.53L35,35a2.94,2.94,0,0,0-.6,1.75,3,3,0,0,0,.6,1.76l1.22-1.22A1.8,1.8,0,0,1,36.18,36.79Z"/><path class="cls-1" d="M12,24.94c2.09-.93,5.5-.28,6.31,2.14a3,3,0,0,1-.92,3.27,3,3,0,0,1-1.56.69,1.73,1.73,0,0,1-.9-.1,1.44,1.44,0,0,0,0-2.8c-2.15-.7-3.33,2-2.07,3.54,1.47,1.81,4.44,1.5,5.95-.07a5.16,5.16,0,0,0,.07-6.6,5.44,5.44,0,0,0-5.49-1.62l-1.67,1.67A2.06,2.06,0,0,1,12,24.94Z"/><path class="cls-1" d="M17.88,36.22a11.69,11.69,0,0,1-5.79-1.39,6,6,0,0,1-3.33-4.92,5.16,5.16,0,0,1,.5-2.36L7.77,29a6.44,6.44,0,0,0,1.49,4.83l.27.29H9.15a2.85,2.85,0,0,0-2.94,2.64,2.84,2.84,0,0,0,2.94,2.64h.38l-.27.29a6.44,6.44,0,0,0-1.49,4.83L9.26,46a5.21,5.21,0,0,1-.5-2.36,6,6,0,0,1,3.33-4.92,11.8,11.8,0,0,1,5.79-1.4A7.8,7.8,0,0,1,23.55,40c1.66,1.75,2.92,3.8,4.51,5.51l.69-.69c-1.69-1.8-2.94-4-4.7-5.78a9.07,9.07,0,0,0-3.54-2.25l0,0h0a9.07,9.07,0,0,0,3.54-2.25c1.76-1.76,3-4,4.7-5.78l-.69-.69c-1.59,1.71-2.85,3.76-4.51,5.51A7.79,7.79,0,0,1,17.88,36.22Zm-4.43.61c-.58.25-1.14.56-1.72.84h0C10.63,38.17,8,38.74,8,36.79s2.61-1.37,3.67-.88h0c.58.28,1.14.58,1.72.84l.07,0Z"/><path class="cls-1" d="M32.2,36.79a5.37,5.37,0,0,1,1.24-3.35l-1.07-1.07a6.67,6.67,0,0,0-2.07,4.42,6.67,6.67,0,0,0,2.07,4.43l1.07-1.07A5.37,5.37,0,0,1,32.2,36.79Z"/><path class="cls-1" d="M18.91,48.58a5.16,5.16,0,0,0-.07-6.6c-1.51-1.57-4.48-1.88-5.95-.07-1.26,1.54-.08,4.23,2.07,3.54a1.44,1.44,0,0,0,0-2.81,1.83,1.83,0,0,1,.9-.09,2.87,2.87,0,0,1,1.56.69,3,3,0,0,1,.92,3.26c-.81,2.43-4.22,3.08-6.31,2.15l-.26-.12,1.67,1.67A5.44,5.44,0,0,0,18.91,48.58Z"/><polygon class="cls-1" points="73.56 8.53 73.56 8.53 73.56 8.53 73.56 8.53 73.57 8.53 73.57 8.53 73.56 8.53"/><polygon class="cls-1" points="73.59 8.53 73.58 8.53 73.58 8.53 73.58 8.53 73.58 8.53 73.59 8.53 73.59 8.53"/><path class="cls-1" d="M70.51,7a1,1,0,0,0-1.27.47,1,1,0,0,0,.44,1.34l.06,0,.07,0A1,1,0,0,0,70.51,7Z"/><path class="cls-1" d="M70.11,7.9h0s0,0,0,0Z"/><polygon class="cls-1" points="70.15 7.9 70.15 7.9 70.15 7.9 70.15 7.9"/><polygon class="cls-1" points="70.16 7.9 70.15 7.9 70.15 7.9 70.16 7.9 70.16 7.9"/><path class="cls-1" d="M69.75,29.5a1,1,0,0,0-1,1,1,1,0,0,0,.84,1,.57.57,0,0,0,.3,0,1,1,0,0,0,.85-1A1,1,0,0,0,69.75,29.5Zm0,1Z"/><path class="cls-1" d="M66.78,6.81h0A1,1,0,0,0,68.1,5.49Z"/><path class="cls-1" d="M67.05,30.27l.41.41A1,1,0,0,0,67.05,30.27Z"/><path class="cls-1" d="M62,12.06a4.8,4.8,0,0,0,.38-.83l-3.28,3.28A5.71,5.71,0,0,0,62,12.06Z"/><path class="cls-1" d="M58.87,18a.93.93,0,0,0-.59-1.75l-.13.05a.93.93,0,0,0,.72,1.7Z"/><path class="cls-1" d="M58,21h-.23l1.39,1.4A1.69,1.69,0,0,0,58,21Z"/><path class="cls-1" d="M73.57.63A1.78,1.78,0,0,1,73,.55L71.82,1.77a2.93,2.93,0,0,0,1.75.59Z"/><path class="cls-1" d="M60.17,23.39l1.67,1.67c0-.09-.09-.17-.12-.26-.93-2.09-.28-5.5,2.14-6.31a3,3,0,0,1,3.27.92A3,3,0,0,1,67.82,21a1.73,1.73,0,0,1-.1.9,1.44,1.44,0,0,0-2.8,0c-.7,2.15,2,3.33,3.54,2.07,1.81-1.48,1.5-4.44-.07-6a5.16,5.16,0,0,0-6.6-.07A5.43,5.43,0,0,0,60.17,23.39Z"/><path class="cls-1" d="M73.58,28.79h0c-1.94,0-1.37-2.62-.88-3.68,0,0,0,0,0,0,.28-.58.58-1.14.84-1.72l0-.08,0,0v-7l0-.05v.05a9.07,9.07,0,0,0-2.25-3.54c-1.76-1.76-4-3-5.78-4.7l-.69.69c1.71,1.59,3.76,2.84,5.51,4.51A7.83,7.83,0,0,1,73,18.92a11.81,11.81,0,0,1-1.4,5.8A5.94,5.94,0,0,1,66.69,28a5,5,0,0,1-2.36-.49L65.82,29a6.44,6.44,0,0,0,4.83-1.49l.29-.27a2.41,2.41,0,0,0,0,.38,2.84,2.84,0,0,0,2.63,2.94h0Z"/><path class="cls-1" d="M73.58,4.61h0a5.43,5.43,0,0,1-3.35-1.24L69.15,4.44A6.7,6.7,0,0,0,73.57,6.5h0Z"/><polygon class="cls-1" points="73.58 65.06 73.59 65.06 73.59 65.06 73.58 65.06 73.58 65.06 73.58 65.06 73.58 65.06"/><polygon class="cls-1" points="73.56 65.06 73.56 65.06 73.57 65.06 73.57 65.06 73.56 65.06 73.56 65.06 73.56 65.06"/><path class="cls-1" d="M70.51,66.63a1,1,0,0,0-.7-1.86l-.07,0-.06,0a1,1,0,0,0-.44,1.34A1,1,0,0,0,70.51,66.63Zm-.36-.94h0Zm0,0Zm-.05,0h0s0,0,0,0h0Z"/><path class="cls-1" d="M69.9,42.12l-.15,0-.15,0a1,1,0,0,0-.84,1,1,1,0,0,0,1,1,1,1,0,0,0,1-1A1,1,0,0,0,69.9,42.12Zm-.16,1Z"/><path class="cls-1" d="M67.92,67a1,1,0,0,0-1.14-.18L68.1,68.1A1,1,0,0,0,67.92,67Z"/><path class="cls-1" d="M67.46,42.91l-.41.41A1,1,0,0,0,67.46,42.91Z"/><path class="cls-1" d="M59.08,59.08l3.28,3.28a4.8,4.8,0,0,0-.38-.83A5.71,5.71,0,0,0,59.08,59.08Z"/><path class="cls-1" d="M59.41,56.73a.9.9,0,1,0-1.26.58l.13,0A.94.94,0,0,0,59.41,56.73Z"/><path class="cls-1" d="M58,52.6a1.7,1.7,0,0,0,1.16-1.4l-1.39,1.39A.87.87,0,0,0,58,52.6Z"/><path class="cls-1" d="M73.57,73s0-1.74,0-1.74a2.94,2.94,0,0,0-1.75.6L73,73A1.78,1.78,0,0,1,73.57,73Z"/><path class="cls-1" d="M73.59,53.43h0V50.27l0,0,0-.07c-.26-.58-.56-1.14-.84-1.72,0,0,0,0,0,0-.49-1.06-1.06-3.67.88-3.67h0V43h0a2.84,2.84,0,0,0-2.63,2.94,2.41,2.41,0,0,0,0,.38L70.65,46a6.44,6.44,0,0,0-4.83-1.49L64.33,46a5.16,5.16,0,0,1,2.36-.5,6,6,0,0,1,4.92,3.33A11.8,11.8,0,0,1,73,54.66a7.84,7.84,0,0,1-2.66,5.67c-1.75,1.66-3.8,2.92-5.51,4.51l.69.69c1.8-1.69,4-2.94,5.78-4.7a9.07,9.07,0,0,0,2.25-3.54v.05l0-.05Z"/><path class="cls-1" d="M73.58,67.08h0a6.67,6.67,0,0,0-4.42,2.07l1.07,1.07A5.37,5.37,0,0,1,73.57,69h0Z"/><path class="cls-1" d="M61.72,48.79a2.06,2.06,0,0,1,.12-.26L60.17,50.2a5.44,5.44,0,0,0,1.62,5.49,5.16,5.16,0,0,0,6.6-.07c1.57-1.51,1.88-4.48.07-5.95-1.55-1.26-4.24-.08-3.54,2.07a1.44,1.44,0,0,0,2.8,0,1.73,1.73,0,0,1,.1.9,3,3,0,0,1-.69,1.56,3,3,0,0,1-3.27.92C61.44,54.29,60.79,50.88,61.72,48.79Z"/><path class="cls-1" d="M44.34,36.79a1,1,0,0,0,1,1,1,1,0,0,0,1-.85.61.61,0,0,0,0-.15.77.77,0,0,0,0-.15,1,1,0,0,0-1-.84A1,1,0,0,0,44.34,36.79Zm1,0h0Zm0,0h0Z"/><path class="cls-1" d="M45,39.3a1,1,0,0,0-.77,1.83,1,1,0,0,0,1.34-.45s0,0,0,0l0-.07A1,1,0,0,0,45,39.3Zm-.3.91Zm0,0Zm0,0h0s0,0,0,0Z"/><path class="cls-1" d="M43.74,33.73A1,1,0,0,0,45.6,33l0-.07s0,0,0-.06a1,1,0,0,0-1.34-.44A1,1,0,0,0,43.74,33.73Zm.94-.35Zm0,0Zm0,0h0S44.65,33.32,44.67,33.32Z"/><path class="cls-1" d="M67.28,39.62a1,1,0,0,0,0,2,1,1,0,0,0,1-.84.26.26,0,0,0,0-.15.25.25,0,0,0,0-.15A1,1,0,0,0,67.28,39.62Zm0,1Z"/><path class="cls-1" d="M67.25,32a1,1,0,0,0-1,1,1,1,0,0,0,1,1,1,1,0,0,0,1-.85.57.57,0,0,0,0-.3A1,1,0,0,0,67.25,32Zm0,1h0Z"/><path class="cls-1" d="M42.27,42.27l1.32,1.32h0a1,1,0,0,0-1.32-1.32Z"/><path class="cls-1" d="M43.41,31.14A1,1,0,0,0,43.59,30l-1.32,1.32A1,1,0,0,0,43.41,31.14Z"/><path class="cls-1" d="M67.05,43.32l.41-.41A1,1,0,0,0,67.05,43.32Z"/><path class="cls-1" d="M67.46,30.68l-.41-.41A1,1,0,0,0,67.46,30.68Z"/><path class="cls-1" d="M48.84,48.39A4.8,4.8,0,0,0,48,48l3.28,3.28A5.71,5.71,0,0,0,48.84,48.39Z"/><path class="cls-1" d="M48.84,25.2a5.71,5.71,0,0,0,2.45-2.9L48,25.58A4.8,4.8,0,0,0,48.84,25.2Z"/><path class="cls-1" d="M53.06,52.22a.93.93,0,0,0,1.7-.73.93.93,0,0,0-1.75.6A.5.5,0,0,0,53.06,52.22Z"/><path class="cls-1" d="M54.76,22.09a.92.92,0,0,0-1.7-.72.5.5,0,0,0-.05.13.93.93,0,0,0,1.75.59Z"/><path class="cls-1" d="M57.77,52.36a.87.87,0,0,0,0,.23l1.39-1.39A1.69,1.69,0,0,0,57.77,52.36Z"/><path class="cls-1" d="M57.77,21.23a1.69,1.69,0,0,0,1.4,1.16L57.78,21A1,1,0,0,0,57.77,21.23Z"/><path class="cls-1" d="M37.33,36.26a1.83,1.83,0,0,1,0,1.07l1.22,1.22a3,3,0,0,0,.59-1.76A2.93,2.93,0,0,0,38.55,35Z"/><path class="cls-1" d="M61.58,48.65c-2.09.93-5.5.28-6.31-2.15a3,3,0,0,1,.92-3.26,2.87,2.87,0,0,1,1.56-.69,1.83,1.83,0,0,1,.9.09,1.44,1.44,0,0,0,0,2.81c2.15.69,3.33-2,2.07-3.54-1.48-1.81-4.44-1.5-6,.07a5.16,5.16,0,0,0-.07,6.6,5.43,5.43,0,0,0,5.49,1.62l1.67-1.67Z"/><path class="cls-1" d="M64.83,29.91a6,6,0,0,1-3.33,4.92,11.7,11.7,0,0,1-5.8,1.39A7.79,7.79,0,0,1,50,33.57c-1.66-1.75-2.92-3.8-4.51-5.51l-.69.69c1.69,1.8,2.94,4,4.7,5.78a9.07,9.07,0,0,0,3.54,2.25h0l0,0a9.07,9.07,0,0,0-3.54,2.25c-1.76,1.76-3,4-4.7,5.78l.69.69C47.12,43.82,48.38,41.77,50,40a7.8,7.8,0,0,1,5.66-2.66,11.81,11.81,0,0,1,5.8,1.4,6,6,0,0,1,3.33,4.92,5.21,5.21,0,0,1-.5,2.36l1.49-1.49a6.44,6.44,0,0,0-1.49-4.83l-.27-.29h.38a2.85,2.85,0,0,0,2.94-2.64,2.86,2.86,0,0,0-2.94-2.64h-.38l.27-.29A6.44,6.44,0,0,0,65.82,29l-1.49-1.49A5.16,5.16,0,0,1,64.83,29.91Zm.74,6.88c0,2-2.62,1.38-3.68.89h0c-.58-.28-1.14-.59-1.72-.84l-.08,0,.08,0c.58-.26,1.14-.56,1.72-.84h0C63,35.42,65.57,34.85,65.57,36.79Z"/><path class="cls-1" d="M41.39,36.79a5.43,5.43,0,0,1-1.24,3.36l1.07,1.07a6.71,6.71,0,0,0,2.06-4.43,6.7,6.7,0,0,0-2.06-4.42l-1.07,1.07A5.43,5.43,0,0,1,41.39,36.79Z"/><path class="cls-1" d="M54.68,25a5.16,5.16,0,0,0,.07,6.6c1.51,1.57,4.47,1.88,6,.07,1.26-1.55.08-4.24-2.07-3.54a1.44,1.44,0,0,0,0,2.8,1.73,1.73,0,0,1-.9.1,3,3,0,0,1-1.56-.69,3,3,0,0,1-.92-3.27c.81-2.42,4.22-3.07,6.31-2.14.09,0,.17.08.26.12l-1.67-1.67A5.43,5.43,0,0,0,54.68,25Z"/><path class="cls-1" d="M36.79,44.34a1,1,0,0,0-1,1,1,1,0,0,0,.84,1l.15,0,.15,0a1,1,0,0,0,.85-1A1,1,0,0,0,36.79,44.34Zm0,1Zm0,0h0Z"/><path class="cls-1" d="M33.73,43.74a1,1,0,0,0-1.27.47,1,1,0,0,0,.44,1.34l.06,0,.07,0a1,1,0,0,0,.7-1.86Zm-.4.94h0s0,0,0,0Zm0,0Zm0,0h0Z"/><path class="cls-1" d="M39.85,43.74A1,1,0,0,0,39.3,45a1,1,0,0,0,1.26.62l.07,0,0,0a1,1,0,0,0,.45-1.34A1,1,0,0,0,39.85,43.74Zm.36.94Zm0,0Zm.05,0h0s0,0,0,0h0Z"/><path class="cls-1" d="M33,66.28a1,1,0,0,0-1,1,1,1,0,0,0,.85,1,.57.57,0,0,0,.3,0,1,1,0,0,0,.85-1A1,1,0,0,0,33,66.28Zm0,1Z"/><path class="cls-1" d="M40.47,68.25a.25.25,0,0,0,.15,0,.26.26,0,0,0,.15,0,1,1,0,0,0,.84-1,1,1,0,0,0-2,0A1,1,0,0,0,40.47,68.25Zm.16-1Z"/><path class="cls-1" d="M30,43.59h0a1,1,0,0,0,1.32-1.32Z"/><path class="cls-1" d="M42.45,43.41a1,1,0,0,0,1.14.18l-1.32-1.32A1,1,0,0,0,42.45,43.41Z"/><path class="cls-1" d="M30.27,67.05l.41.41A1,1,0,0,0,30.27,67.05Z"/><path class="cls-1" d="M42.91,67.46l.41-.41A1,1,0,0,0,42.91,67.46Z"/><path class="cls-1" d="M25.2,48.84a4.8,4.8,0,0,0,.38-.83L22.3,51.29A5.71,5.71,0,0,0,25.2,48.84Z"/><path class="cls-1" d="M51.29,51.29,48,48a4.8,4.8,0,0,0,.38.83A5.71,5.71,0,0,0,51.29,51.29Z"/><path class="cls-1" d="M22.09,54.76A.93.93,0,0,0,21.5,53l-.13.05a.92.92,0,0,0,.72,1.7Z"/><path class="cls-1" d="M51,53.64a.9.9,0,1,0,1.71.56.92.92,0,0,0-.45-1.14L52.09,53A.93.93,0,0,0,51,53.64Z"/><path class="cls-1" d="M21.23,57.77a1,1,0,0,0-.24,0l1.4,1.39A1.69,1.69,0,0,0,21.23,57.77Z"/><path class="cls-1" d="M52.36,57.77a1.69,1.69,0,0,0-1.16,1.4l1.39-1.39A.87.87,0,0,0,52.36,57.77Z"/><path class="cls-1" d="M36.79,37.41a1.78,1.78,0,0,1-.53-.08L35,38.55a2.93,2.93,0,0,0,1.75.59,3,3,0,0,0,1.76-.59l-1.22-1.22A1.8,1.8,0,0,1,36.79,37.41Z"/><path class="cls-1" d="M23.39,60.17l1.67,1.67c0-.09-.09-.17-.12-.26-.93-2.09-.28-5.5,2.14-6.31a3,3,0,0,1,3.27.92A3,3,0,0,1,31,57.75a1.73,1.73,0,0,1-.1.9,1.44,1.44,0,0,0-2.8,0c-.7,2.15,2,3.33,3.54,2.07,1.81-1.48,1.5-4.44-.07-6a5.16,5.16,0,0,0-6.6-.07A5.43,5.43,0,0,0,23.39,60.17Z"/><path class="cls-1" d="M36.81,53.08l0,0v0a9.07,9.07,0,0,0-2.25-3.54c-1.76-1.76-4-3-5.78-4.7l-.69.69c1.71,1.59,3.76,2.85,5.51,4.51a7.79,7.79,0,0,1,2.65,5.66,11.7,11.7,0,0,1-1.39,5.8,6,6,0,0,1-4.92,3.33,5.16,5.16,0,0,1-2.36-.5L29,65.82a6.44,6.44,0,0,0,4.83-1.49l.29-.27c0,.12,0,.25,0,.38a2.86,2.86,0,0,0,2.64,2.94,2.85,2.85,0,0,0,2.64-2.94,2.41,2.41,0,0,0,0-.38l.29.27a6.44,6.44,0,0,0,4.83,1.49L46,64.33a5.21,5.21,0,0,1-2.36.5,6,6,0,0,1-4.92-3.33,11.81,11.81,0,0,1-1.4-5.8A7.8,7.8,0,0,1,40,50c1.75-1.66,3.8-2.92,5.51-4.51l-.69-.69c-1.8,1.69-4,2.94-5.78,4.7A9.07,9.07,0,0,0,36.81,53.08Zm.86,8.78v0c.49,1.06,1.06,3.68-.89,3.68s-1.37-2.62-.88-3.68v0c.28-.58.58-1.14.84-1.72l0-.08a.3.3,0,0,1,0,.08C37.08,60.72,37.39,61.28,37.67,61.86Z"/><path class="cls-1" d="M40.15,40.15a5.16,5.16,0,0,1-6.71,0l-1.07,1.07a6.7,6.7,0,0,0,4.42,2.06,6.71,6.71,0,0,0,4.43-2.06Z"/><path class="cls-1" d="M48.58,54.68a5.16,5.16,0,0,0-6.6.07c-1.57,1.51-1.88,4.47-.07,6,1.54,1.26,4.23.08,3.54-2.07a1.44,1.44,0,0,0-2.81,0,1.83,1.83,0,0,1-.09-.9,2.87,2.87,0,0,1,.69-1.56,3,3,0,0,1,3.26-.92c2.43.81,3.08,4.22,2.15,6.31l-.12.26,1.67-1.67A5.43,5.43,0,0,0,48.58,54.68Z"/><polygon class="cls-1" points="8.53 73.59 8.53 73.58 8.53 73.58 8.53 73.58 8.53 73.58 8.53 73.59 8.53 73.59"/><polygon class="cls-1" points="8.53 73.56 8.53 73.57 8.53 73.57 8.53 73.56 8.53 73.56 8.53 73.56 8.53 73.56"/><path class="cls-1" d="M7,70.51a1,1,0,0,0,1.86-.7l0-.07s0,0,0-.06a1,1,0,0,0-1.34-.44A1,1,0,0,0,7,70.51Zm.94-.35Zm0,0Zm0-.05h0S7.87,70.1,7.89,70.1Z"/><path class="cls-1" d="M30.47,68.76a1,1,0,0,0-1,1,1,1,0,0,0,1,1,1,1,0,0,0,1-.85.57.57,0,0,0,0-.3A1,1,0,0,0,30.47,68.76Zm0,1h0Z"/><path class="cls-1" d="M6.63,67.92a1,1,0,0,0,.18-1.14L5.49,68.1A1,1,0,0,0,6.63,67.92Z"/><path class="cls-1" d="M30.68,67.46l-.41-.41A1,1,0,0,0,30.68,67.46Z"/><path class="cls-1" d="M12.06,62a5.71,5.71,0,0,0,2.45-2.9l-3.28,3.28A4.8,4.8,0,0,0,12.06,62Z"/><path class="cls-1" d="M18,58.87a.93.93,0,0,0-1.7-.72.5.5,0,0,0-.05.13.93.93,0,0,0,1.75.59Z"/><path class="cls-1" d="M21,58a1.69,1.69,0,0,0,1.4,1.16L21,57.78A1.76,1.76,0,0,0,21,58Z"/><path class="cls-1" d="M2.36,73.57a2.93,2.93,0,0,0-.59-1.75L.55,73a1.78,1.78,0,0,1,.08.53S2.36,73.59,2.36,73.57Z"/><path class="cls-1" d="M27.66,70.94h-.38l.27-.29A6.44,6.44,0,0,0,29,65.82l-1.49-1.49A5,5,0,0,1,28,66.69a5.94,5.94,0,0,1-3.32,4.92,11.81,11.81,0,0,1-5.8,1.4,7.83,7.83,0,0,1-5.66-2.66c-1.67-1.75-2.92-3.8-4.51-5.51l-.69.69c1.69,1.8,2.94,4,4.7,5.78a9.07,9.07,0,0,0,3.54,2.25h7l.08,0c.58-.26,1.14-.56,1.72-.84h0c1.06-.49,3.68-1.06,3.68.88H30.6A2.84,2.84,0,0,0,27.66,70.94Z"/><path class="cls-1" d="M4.61,73.57H6.5a6.7,6.7,0,0,0-2.06-4.42L3.37,70.22a5.43,5.43,0,0,1,1.24,3.35Z"/><path class="cls-1" d="M17.9,61.79a5.16,5.16,0,0,0,.07,6.6c1.51,1.57,4.47,1.88,6,.07,1.26-1.55.08-4.24-2.07-3.54a1.44,1.44,0,0,0,0,2.8,1.73,1.73,0,0,1-.9.1,3,3,0,0,1-1.56-.69,3,3,0,0,1-.92-3.27c.81-2.42,4.22-3.07,6.31-2.14.09,0,.17.08.26.12l-1.67-1.67A5.43,5.43,0,0,0,17.9,61.79Z"/><polygon class="cls-1" points="65.06 73.56 65.06 73.56 65.06 73.57 65.06 73.57 65.06 73.56 65.06 73.56 65.06 73.56"/><polygon class="cls-1" points="65.06 73.58 65.06 73.58 65.06 73.58 65.06 73.58 65.06 73.59 65.06 73.59 65.06 73.58"/><path class="cls-1" d="M65.39,71.07a1,1,0,0,0,1.24-.56,1,1,0,0,0-.47-1.27,1,1,0,0,0-1.34.44s0,0,0,.06l0,.07A1,1,0,0,0,65.39,71.07Z"/><polygon class="cls-1" points="65.69 70.16 65.69 70.16 65.69 70.15 65.69 70.15 65.69 70.16"/><polygon class="cls-1" points="65.69 70.15 65.69 70.15 65.69 70.15 65.69 70.15"/><path class="cls-1" d="M65.69,70.11h0s0,0,0,0Z"/><path class="cls-1" d="M43.12,68.76a1,1,0,0,0-1,.84.39.39,0,0,0,0,.3,1,1,0,0,0,1,.85,1,1,0,0,0,1-1A1,1,0,0,0,43.12,68.76Zm0,1h0Z"/><path class="cls-1" d="M68.1,68.1l-1.32-1.32h0A1,1,0,0,0,67,67.92,1,1,0,0,0,68.1,68.1Z"/><path class="cls-1" d="M43.32,67.05l-.41.41A1,1,0,0,0,43.32,67.05Z"/><path class="cls-1" d="M61.53,62a4.8,4.8,0,0,0,.83.38l-3.28-3.28A5.71,5.71,0,0,0,61.53,62Z"/><path class="cls-1" d="M57.31,58.15a.92.92,0,1,0-.58,1.26.94.94,0,0,0,.63-1.13A.5.5,0,0,0,57.31,58.15Z"/><path class="cls-1" d="M52.6,58a.87.87,0,0,0,0-.23L51.2,59.17A1.7,1.7,0,0,0,52.6,58Z"/><path class="cls-1" d="M73,73.57A1.78,1.78,0,0,1,73,73l-1.22-1.22a2.94,2.94,0,0,0-.6,1.75S73,73.58,73,73.57Z"/><path class="cls-1" d="M50.2,60.17l-1.67,1.67a2.06,2.06,0,0,1,.26-.12c2.09-.93,5.5-.28,6.31,2.14a3,3,0,0,1-.92,3.27,3,3,0,0,1-1.56.69,1.73,1.73,0,0,1-.9-.1,1.44,1.44,0,0,0,0-2.8c-2.15-.7-3.33,2-2.07,3.54,1.47,1.81,4.44,1.5,5.95-.07a5.16,5.16,0,0,0,.07-6.6A5.43,5.43,0,0,0,50.2,60.17Z"/><path class="cls-1" d="M65.53,65.53l-.69-.69c-1.59,1.71-2.85,3.76-4.51,5.51A7.84,7.84,0,0,1,54.66,73a11.8,11.8,0,0,1-5.79-1.4,6,6,0,0,1-3.33-4.92,5.16,5.16,0,0,1,.5-2.36l-1.49,1.49A6.44,6.44,0,0,0,46,70.65l.27.29h-.38A2.84,2.84,0,0,0,43,73.57H44.8c0-1.94,2.61-1.37,3.67-.88h0c.58.28,1.14.58,1.72.84l.07,0h7a9.07,9.07,0,0,0,3.54-2.25C62.59,69.55,63.84,67.33,65.53,65.53Z"/><path class="cls-1" d="M69,73.58h0a5.37,5.37,0,0,1,1.24-3.35l-1.07-1.07a6.67,6.67,0,0,0-2.07,4.42H69Z"/></g></g></svg>